<svg width="122" height="118" viewBox="0 0 122 118" fill="none" xmlns="http://www.w3.org/2000/svg">
<g filter="url(#filter0_d_329_121)">
<ellipse cx="61" cy="55" rx="57" ry="55" fill="#FE3232"/>
</g>
<path d="M23.0427 25.1623C20.1437 38.472 26.8316 47.1303 34.9409 51.9224C28.8062 50.5343 22.8707 48.4597 16.7109 45.3739C21.4424 59.1462 31.7707 62.4037 40.8146 61.5033C35.8173 64.0364 30.5368 66 25.2403 67.3294C38.236 75.063 47.6891 70.1741 52.8868 63.3695C47.2859 60.2 43.11 53.8085 41.1914 45.8904C34.1407 39.7028 27.9408 32.5582 23.0425 25.1621L23.0427 25.1623ZM97.8066 25.1623C92.9087 32.5575 86.7079 39.6985 79.6577 45.8849C77.7395 53.8055 73.5644 60.1996 67.9627 63.3697C73.1599 70.1743 82.6129 75.0632 95.6092 67.3296C90.3133 66.0002 85.0371 64.0362 80.0403 61.5035C89.0831 62.4019 99.4077 59.1432 104.138 45.3741C97.9786 48.4599 92.043 50.5346 85.9082 51.9225C94.0176 47.1303 100.706 38.4721 97.8064 25.1623H97.8066ZM60.4245 29.8166C56.053 29.8166 52.0879 30.4522 49.0657 31.5663C47.5544 32.1231 46.2741 32.7937 45.2735 33.6653C44.273 34.5375 43.5108 35.7146 43.5108 37.0702C43.5108 37.2284 43.52 37.3839 43.5399 37.5367C44.026 49.0809 49.4922 58.4299 56.0235 61.2088L57.3112 61.7587L57.0152 63.075C55.4112 70.2345 53.1976 74.3807 49.419 76.7659C47.3421 78.0772 46.7872 79.1147 46.7519 79.4543C46.7167 79.7938 46.8938 80.2008 48.0218 80.8595C50.2777 82.1765 55.4297 83.1979 60.4245 83.1979C65.4105 83.1979 70.3063 82.1415 72.427 80.8149C73.4875 80.1519 73.6909 79.7094 73.6564 79.2988C73.6219 78.8879 73.1114 77.8886 71.2268 76.5937C67.641 74.1299 65.4142 70.1762 63.8341 63.0748L63.5381 61.7585L64.8255 61.2086C71.3567 58.4297 76.8233 49.0807 77.3091 37.5365H77.3035C77.3232 37.3837 77.3324 37.2282 77.3324 37.07C77.3324 35.7146 76.576 34.5373 75.5753 33.6653C74.5747 32.7935 73.2886 32.1231 71.7772 31.5663C68.755 30.4519 64.7956 29.8165 60.4243 29.8165L60.4245 29.8166ZM60.4245 33.1381C64.4354 33.1381 68.0605 33.7549 70.5312 34.6654C71.7664 35.1208 72.7036 35.6542 73.2389 36.1207C73.7744 36.5873 73.8651 36.8814 73.8651 37.0705C73.8651 37.2595 73.7746 37.5536 73.2391 38.0202C72.7038 38.4869 71.7666 39.0203 70.5312 39.4758C68.0607 40.3862 64.4356 41.0031 60.4249 41.0031C56.4141 41.0031 52.7833 40.3863 50.3125 39.4756C49.0772 39.0201 48.1402 38.4867 47.6047 38.02C47.0692 37.5536 46.9785 37.2593 46.9785 37.0703C46.9785 36.8814 47.0694 36.5873 47.6047 36.1207C48.1402 35.6542 49.0772 35.1208 50.3125 34.6654C52.7833 33.7549 56.4141 33.138 60.4249 33.138L60.4245 33.1381Z" fill="white"/>
<defs>
<filter id="filter0_d_329_121" x="0" y="0" width="122" height="118" filterUnits="userSpaceOnUse" color-interpolation-filters="sRGB">
<feFlood flood-opacity="0" result="BackgroundImageFix"/>
<feColorMatrix in="SourceAlpha" type="matrix" values="0 0 0 0 0 0 0 0 0 0 0 0 0 0 0 0 0 0 127 0" result="hardAlpha"/>
<feOffset dy="4"/>
<feGaussianBlur stdDeviation="2"/>
<feComposite in2="hardAlpha" operator="out"/>
<feColorMatrix type="matrix" values="0 0 0 0 0 0 0 0 0 0 0 0 0 0 0 0 0 0 0.25 0"/>
<feBlend mode="normal" in2="BackgroundImageFix" result="effect1_dropShadow_329_121"/>
<feBlend mode="normal" in="SourceGraphic" in2="effect1_dropShadow_329_121" result="shape"/>
</filter>
</defs>
</svg>
