<svg width="79" height="84" viewBox="0 0 79 84" fill="none" xmlns="http://www.w3.org/2000/svg">
<path d="M9.875 66.5C9.875 58.768 18.7174 52.5 29.625 52.5C40.5326 52.5 49.375 58.768 49.375 66.5" stroke="white" stroke-width="2" stroke-linecap="round" stroke-linejoin="round"/>
<path d="M61.5417 56C61.5417 56.5523 61.9894 57 62.5417 57C63.094 57 63.5417 56.5523 63.5417 56H61.5417ZM63.5417 35C63.5417 34.4477 63.094 34 62.5417 34C61.9894 34 61.5417 34.4477 61.5417 35H63.5417ZM63.5417 56V35H61.5417V56H63.5417Z" fill="white"/>
<path d="M52.6667 44.5C52.1144 44.5 51.6667 44.9477 51.6667 45.5C51.6667 46.0523 52.1144 46.5 52.6667 46.5L52.6667 44.5ZM72.4167 46.5C72.969 46.5 73.4167 46.0523 73.4167 45.5C73.4167 44.9477 72.969 44.5 72.4167 44.5L72.4167 46.5ZM52.6667 46.5L72.4167 46.5L72.4167 44.5L52.6667 44.5L52.6667 46.5Z" fill="white"/>
<path d="M29.625 42C36.8967 42 42.7916 35.732 42.7916 28C42.7916 20.268 36.8967 14 29.625 14C22.3532 14 16.4583 20.268 16.4583 28C16.4583 35.732 22.3532 42 29.625 42Z" stroke="white" stroke-width="2" stroke-linecap="round" stroke-linejoin="round"/>
</svg>
